<?xml version="1.0" encoding="utf-8" standalone="no"?>
<!DOCTYPE svg PUBLIC "-//W3C//DTD SVG 1.1//EN"
  "http://www.w3.org/Graphics/SVG/1.1/DTD/svg11.dtd">
<!-- Created with matplotlib (http://matplotlib.org/) -->
<svg height="25.2pt" version="1.1" viewBox="0 0 64.8 25.2" width="64.8pt" xmlns="http://www.w3.org/2000/svg" xmlns:xlink="http://www.w3.org/1999/xlink">
 <defs>
  <style type="text/css">
*{stroke-linecap:butt;stroke-linejoin:round;}
  </style>
 </defs>
 <g id="figure_1">
  <g id="patch_1">
   <path d="M 0 25.2 
L 64.8 25.2 
L 64.8 0 
L 0 0 
z
" style="fill:#ffffff;"/>
  </g>
  <g id="axes_1">
   <g id="line2d_1">
    <path clip-path="url(#p5388236020)" d="M 10.382727 21.546 
L 10.747964 21.315033 
L 11.1132 20.194177 
L 11.661055 19.521662 
L 11.843673 19.752629 
L 12.026291 19.776395 
L 12.208909 19.158242 
L 12.574145 18.692929 
L 12.756764 19.677917 
L 13.122 20.299484 
L 13.304618 16.950504 
L 13.669855 17.976263 
L 13.852473 17.697731 
L 14.217709 16.44442 
L 14.400327 16.11156 
L 14.582945 17.853985 
L 15.1308 15.712577 
L 15.313418 15.934231 
L 15.496036 16.98786 
L 15.861273 17.209514 
L 16.043891 16.333179 
L 16.226509 16.264986 
L 16.409127 16.507094 
L 16.591745 16.305895 
L 16.956982 15.26589 
L 17.504836 14.877186 
L 17.687455 15.548907 
L 17.870073 15.60689 
L 18.052691 15.828509 
L 18.235309 16.725332 
L 18.417927 15.746691 
L 18.600545 15.96493 
L 18.965782 16.844644 
L 19.1484 16.2991 
L 19.331018 16.711673 
L 19.513636 16.691219 
L 20.061491 19.023546 
L 20.244109 19.480478 
L 20.609345 18.225649 
L 20.791964 18.549575 
L 20.974582 18.263178 
L 21.1572 18.368865 
L 21.339818 18.140416 
L 21.522436 18.481382 
L 21.705055 17.830115 
L 21.887673 17.860814 
L 22.070291 17.676655 
L 22.252909 17.656201 
L 22.435527 17.434582 
L 22.618145 17.622121 
L 22.800764 17.284536 
L 22.983382 16.2991 
L 23.166 16.097901 
L 23.348618 16.340009 
L 23.531236 17.628917 
L 24.079091 17.247008 
L 24.261709 17.48232 
L 24.444327 17.141321 
L 24.809564 13.966738 
L 24.992182 13.175636 
L 25.1748 13.908755 
L 25.357418 13.492767 
L 25.722655 11.399098 
L 25.905273 11.208178 
L 26.087891 10.720548 
L 26.453127 11.041783 
L 26.635745 11.281338 
L 27.000982 12.954742 
L 27.1836 12.263498 
L 27.366218 12.588596 
L 27.548836 12.646752 
L 27.914073 10.942546 
L 28.096691 10.939131 
L 28.461927 11.589328 
L 28.644545 12.817873 
L 28.827164 12.006834 
L 29.557636 12.978715 
L 29.922873 12.855505 
L 30.105491 11.726197 
L 30.288109 12.05816 
L 30.470727 11.863101 
L 30.653345 11.880209 
L 31.018582 10.442912 
L 31.2012 11.086279 
L 31.383818 11.151299 
L 31.566436 10.925437 
L 31.749055 10.925437 
L 31.931673 12.444863 
L 32.114291 12.434584 
L 32.296909 12.270327 
L 32.479527 12.903416 
L 32.662145 11.866515 
L 32.844764 11.876794 
L 33.027382 11.603022 
L 33.21 10.928852 
L 33.392618 11.151299 
L 33.757855 11.171822 
L 33.940473 10.83303 
L 34.123091 10.213635 
L 34.305709 10.521625 
L 34.488327 9.525806 
L 34.670945 9.471031 
L 34.853564 9.744804 
L 35.036182 10.244438 
L 35.2188 10.230744 
L 35.584036 12.260048 
L 35.766655 12.123179 
L 35.949273 13.33803 
L 36.131891 13.676823 
L 36.497127 13.399635 
L 36.862364 17.263185 
L 37.044982 15.025128 
L 37.410218 17.721772 
L 37.592836 17.072334 
L 37.775455 14.907609 
L 37.958073 14.347509 
L 38.140691 13.3064 
L 38.323309 11.375332 
L 38.871164 12.035049 
L 39.053782 11.543693 
L 39.419018 9.320537 
L 39.784255 9.612626 
L 39.966873 10.684675 
L 40.332109 10.059313 
L 40.514727 10.110846 
L 40.697345 10.674361 
L 41.2452 8.37563 
L 41.610436 9.502661 
L 41.793055 9.430501 
L 41.975673 9.646981 
L 42.158291 10.581574 
L 42.340909 10.602201 
L 42.888764 14.141343 
L 43.071382 11.450907 
L 43.436618 13.612182 
L 43.619236 13.165495 
L 43.801855 13.543472 
L 43.984473 12.955914 
L 44.167091 11.84951 
L 44.349709 11.440593 
L 44.532327 12.959329 
L 44.714945 12.385535 
L 44.897564 11.285995 
L 45.080182 11.564286 
L 45.2628 10.980178 
L 45.445418 10.777427 
L 45.628036 10.4029 
L 45.810655 9.571372 
L 45.993273 9.708827 
L 46.541127 14.038277 
L 46.723745 14.828585 
L 47.088982 14.388762 
L 47.2716 15.041615 
L 47.636836 12.711944 
L 47.819455 10.145201 
L 48.002073 10.035236 
L 48.184691 7.650617 
L 48.732545 6.437664 
L 48.915164 5.516798 
L 49.2804 5.916954 
L 49.463018 6.506788 
L 49.645636 5.906606 
L 50.010873 6.551629 
L 50.193491 6.096319 
L 50.376109 6.258437 
L 50.558727 5.844518 
L 50.741345 5.916954 
L 50.923964 5.768633 
L 51.471818 6.358467 
L 51.837055 4.647604 
L 52.202291 3.906 
L 52.384909 4.085365 
L 52.567527 4.692445 
L 52.750145 4.854563 
L 52.932764 4.492385 
L 53.115382 5.037377 
L 53.298 5.002884 
L 53.480618 5.678951 
L 53.663236 5.713444 
L 53.845855 6.765487 
L 54.028473 6.486092 
L 54.393709 7.031085 
L 54.576327 7.979648 
L 54.758945 7.200102 
L 54.941564 7.293233 
L 55.124182 6.831024 
L 55.3068 6.965548 
L 55.489418 6.251538 
L 55.672036 7.376017 
L 55.854655 6.865517 
L 56.037273 5.979042 
L 56.037273 5.979042 
" style="fill:none;stroke:#0000ff;stroke-linecap:square;stroke-width:0.35;"/>
   </g>
  </g>
 </g>
 <defs>
  <clipPath id="p5388236020">
   <rect height="19.404" width="50.22" x="8.1" y="3.024"/>
  </clipPath>
 </defs>
</svg>
