<?xml version="1.0" encoding="utf-8" standalone="no"?>
<!DOCTYPE svg PUBLIC "-//W3C//DTD SVG 1.1//EN"
  "http://www.w3.org/Graphics/SVG/1.1/DTD/svg11.dtd">
<!-- Created with matplotlib (http://matplotlib.org/) -->
<svg height="25.2pt" version="1.1" viewBox="0 0 64.8 25.2" width="64.8pt" xmlns="http://www.w3.org/2000/svg" xmlns:xlink="http://www.w3.org/1999/xlink">
 <defs>
  <style type="text/css">
*{stroke-linecap:butt;stroke-linejoin:round;}
  </style>
 </defs>
 <g id="figure_1">
  <g id="patch_1">
   <path d="M 0 25.2 
L 64.8 25.2 
L 64.8 0 
L 0 0 
z
" style="fill:#ffffff;"/>
  </g>
  <g id="axes_1">
   <g id="line2d_1">
    <path clip-path="url(#pa3495e03d9)" d="M 10.382727 8.940352 
L 10.565345 9.865885 
L 10.747964 9.795683 
L 10.930582 9.546346 
L 11.295818 10.195107 
L 11.478436 11.568478 
L 11.661055 11.741965 
L 12.026291 13.960179 
L 12.208909 14.392686 
L 12.391527 13.69551 
L 12.574145 14.342657 
L 12.756764 13.597066 
L 12.939382 13.54381 
L 13.122 14.086865 
L 13.487236 13.498622 
L 13.669855 13.958565 
L 13.852473 14.023118 
L 14.217709 14.904271 
L 14.400327 14.826 
L 14.582945 15.791072 
L 14.765564 15.487671 
L 14.948182 15.811245 
L 15.1308 15.780582 
L 15.496036 16.172744 
L 15.861273 16.925597 
L 16.043891 17.174127 
L 16.226509 17.85355 
L 16.774364 16.648824 
L 16.956982 16.781965 
L 17.322218 16.27038 
L 17.504836 16.008939 
L 17.687455 16.947383 
L 17.870073 16.175971 
L 18.052691 16.226807 
L 18.235309 17.616317 
L 18.600545 16.906231 
L 18.783164 16.682715 
L 18.965782 16.764213 
L 19.1484 16.562484 
L 19.331018 17.467844 
L 19.513636 17.343579 
L 19.696255 16.618968 
L 20.061491 16.46404 
L 20.244109 15.937931 
L 20.426727 16.068651 
L 20.609345 16.501159 
L 20.791964 16.284905 
L 21.1572 17.472686 
L 21.339818 17.37747 
L 21.705055 16.783579 
L 22.070291 17.302427 
L 22.252909 16.740813 
L 22.435527 16.691591 
L 22.618145 16.475337 
L 22.800764 15.484444 
L 22.983382 15.973435 
L 23.166 15.254473 
L 23.348618 16.146922 
L 23.531236 15.57966 
L 23.713855 15.620813 
L 23.896473 15.968594 
L 24.079091 15.657931 
L 24.261709 19.460928 
L 24.444327 19.109919 
L 24.809564 20.144386 
L 24.992182 19.886173 
L 25.1748 20.023349 
L 25.357418 19.276144 
L 25.540036 19.754646 
L 25.722655 19.573896 
L 26.087891 19.72479 
L 26.270509 19.636029 
L 26.453127 19.276951 
L 26.635745 19.4343 
L 27.000982 18.792801 
L 27.1836 18.934012 
L 27.366218 18.438565 
L 27.731455 19.27211 
L 27.914073 19.130092 
L 28.096691 19.288248 
L 28.279309 19.674761 
L 28.827164 17.264501 
L 29.009782 17.006288 
L 29.1924 16.359948 
L 29.375018 16.363176 
L 29.557636 16.757758 
L 29.922873 16.335741 
L 30.105491 16.538277 
L 30.288109 16.135625 
L 30.470727 16.029112 
L 30.653345 16.487441 
L 30.835964 16.640755 
L 31.2012 16.556029 
L 31.566436 18.231994 
L 31.749055 18.003637 
L 32.296909 18.03672 
L 32.479527 18.503925 
L 32.662145 18.187614 
L 32.844764 16.892513 
L 33.027382 17.04502 
L 33.392618 16.128363 
L 33.575236 16.055741 
L 34.305709 15.410207 
L 34.670945 14.59038 
L 34.853564 14.078795 
L 35.036182 15.197988 
L 35.2188 15.302081 
L 35.401418 15.235914 
L 35.584036 14.877643 
L 35.766655 15.179429 
L 35.949273 15.009977 
L 36.131891 15.837066 
L 36.314509 15.620813 
L 36.497127 16.430957 
L 36.679745 16.679487 
L 36.862364 17.59453 
L 37.044982 17.269343 
L 37.2276 19.861159 
L 37.410218 20.361447 
L 37.592836 21.212744 
L 37.775455 21.294242 
L 37.958073 21.546 
L 38.140691 18.432916 
L 38.323309 18.695971 
L 38.688545 16.200986 
L 38.871164 15.927441 
L 39.053782 16.496317 
L 39.2364 16.342196 
L 39.419018 16.659314 
L 39.601636 16.073493 
L 39.784255 16.133205 
L 39.966873 16.548767 
L 40.149491 16.005712 
L 40.332109 15.991994 
L 40.514727 16.163061 
L 41.062582 15.830611 
L 41.427818 15.456202 
L 41.610436 16.03234 
L 41.793055 16.092859 
L 41.975673 15.988767 
L 42.158291 16.263118 
L 42.340909 15.991187 
L 42.523527 14.833262 
L 42.706145 14.656548 
L 42.888764 15.819314 
L 43.071382 15.370669 
L 43.436618 16.044444 
L 43.619236 15.753954 
L 43.801855 16.718219 
L 43.984473 16.274415 
L 44.167091 15.533666 
L 44.349709 15.382772 
L 44.532327 16.16064 
L 44.714945 16.238911 
L 44.897564 15.862081 
L 45.080182 15.863695 
L 45.2628 15.594991 
L 45.445418 16.137239 
L 45.993273 14.442715 
L 46.175891 14.515337 
L 46.358509 15.04064 
L 46.541127 15.140697 
L 46.723745 14.947844 
L 46.906364 14.429804 
L 47.088982 7.734012 
L 47.2716 7.342657 
L 47.454218 7.667037 
L 47.636836 7.450784 
L 48.002073 7.982542 
L 48.184691 7.902657 
L 48.367309 7.966403 
L 48.549927 7.579084 
L 48.732545 7.557297 
L 48.915164 7.720294 
L 49.097782 7.540352 
L 49.463018 7.406403 
L 49.645636 5.945078 
L 50.010873 6.971476 
L 50.193491 6.817354 
L 50.376109 6.851245 
L 50.558727 6.684213 
L 50.741345 6.852052 
L 50.923964 7.212744 
L 51.2892 6.595452 
L 51.471818 7.1143 
L 52.019673 5.245481 
L 52.202291 5.206749 
L 52.384909 5.653781 
L 52.567527 5.242254 
L 52.750145 4.172282 
L 52.932764 4.199718 
L 53.115382 4.925942 
L 53.845855 3.964098 
L 54.211091 4.453089 
L 54.393709 3.906 
L 54.576327 5.178507 
L 54.758945 4.570899 
L 54.941564 4.930784 
L 55.124182 7.261159 
L 55.3068 7.018277 
L 55.672036 5.599718 
L 55.854655 5.674761 
L 56.037273 5.431072 
L 56.037273 5.431072 
" style="fill:none;stroke:#0000ff;stroke-linecap:square;stroke-width:0.35;"/>
   </g>
  </g>
 </g>
 <defs>
  <clipPath id="pa3495e03d9">
   <rect height="19.404" width="50.22" x="8.1" y="3.024"/>
  </clipPath>
 </defs>
</svg>
