<?xml version="1.0" encoding="utf-8" standalone="no"?>
<!DOCTYPE svg PUBLIC "-//W3C//DTD SVG 1.1//EN"
  "http://www.w3.org/Graphics/SVG/1.1/DTD/svg11.dtd">
<!-- Created with matplotlib (http://matplotlib.org/) -->
<svg height="25.2pt" version="1.1" viewBox="0 0 64.8 25.2" width="64.8pt" xmlns="http://www.w3.org/2000/svg" xmlns:xlink="http://www.w3.org/1999/xlink">
 <defs>
  <style type="text/css">
*{stroke-linecap:butt;stroke-linejoin:round;}
  </style>
 </defs>
 <g id="figure_1">
  <g id="patch_1">
   <path d="M 0 25.2 
L 64.8 25.2 
L 64.8 0 
L 0 0 
z
" style="fill:#ffffff;"/>
  </g>
  <g id="axes_1">
   <g id="line2d_1">
    <path clip-path="url(#pa26b02d8b4)" d="M 10.382727 21.103357 
L 10.565345 20.491266 
L 10.747964 19.235959 
L 11.295818 18.948933 
L 11.661055 17.423891 
L 11.843673 17.289023 
L 12.026291 17.323604 
L 12.208909 16.780676 
L 12.391527 17.029662 
L 12.574145 16.915543 
L 12.939382 14.550172 
L 13.122 15.656778 
L 13.304618 15.445831 
L 13.669855 15.885016 
L 13.852473 15.528827 
L 14.035091 14.712705 
L 14.217709 14.972065 
L 14.400327 14.989356 
L 14.582945 16.296535 
L 14.765564 16.061381 
L 14.948182 15.138056 
L 15.1308 15.051603 
L 15.313418 15.397417 
L 15.496036 16.465984 
L 15.861273 16.165126 
L 16.043891 15.521911 
L 16.591745 16.670015 
L 16.956982 16.071756 
L 17.322218 14.716163 
L 17.504836 14.698872 
L 17.687455 15.148431 
L 18.052691 14.287353 
L 18.235309 15.068894 
L 18.417927 14.183608 
L 18.600545 14.373806 
L 18.783164 14.342683 
L 18.965782 15.065435 
L 19.1484 14.830282 
L 19.331018 15.393959 
L 19.513636 14.525965 
L 19.696255 14.647 
L 20.061491 15.210678 
L 20.244109 17.863075 
L 20.426727 17.399684 
L 20.609345 16.199707 
L 20.791964 15.836602 
L 20.974582 15.096559 
L 21.1572 15.580699 
L 21.339818 15.41125 
L 21.522436 15.943804 
L 21.705055 14.968607 
L 21.887673 14.626251 
L 22.070291 14.532881 
L 22.252909 14.847572 
L 22.435527 14.449886 
L 22.618145 14.51559 
L 23.166 13.28449 
L 23.348618 13.312156 
L 23.531236 13.820503 
L 23.713855 13.675261 
L 23.896473 14.958233 
L 24.079091 14.774951 
L 24.261709 15.189929 
L 24.444327 15.179554 
L 24.626945 12.672399 
L 24.809564 11.984228 
L 24.992182 11.918523 
L 25.1748 11.019405 
L 25.357418 12.312752 
L 25.540036 12.312752 
L 25.722655 11.880483 
L 25.905273 11.852818 
L 26.453127 12.471826 
L 26.635745 12.364624 
L 26.818364 12.606694 
L 27.000982 12.648192 
L 27.1836 12.081056 
L 27.548836 12.374998 
L 27.731455 11.296057 
L 27.914073 11.638413 
L 28.096691 10.977907 
L 28.279309 10.891454 
L 28.461927 11.102401 
L 28.644545 13.623389 
L 28.827164 12.914469 
L 29.009782 13.633763 
L 29.1924 14.88907 
L 29.375018 14.418762 
L 29.740255 11.890858 
L 29.922873 12.285086 
L 30.105491 12.271254 
L 30.288109 12.990548 
L 30.470727 12.527157 
L 30.653345 12.496033 
L 30.835964 11.877025 
L 31.018582 11.655704 
L 31.566436 12.821099 
L 31.749055 12.907553 
L 31.931673 13.325988 
L 32.114291 12.762311 
L 32.296909 12.658566 
L 32.479527 13.163455 
L 32.844764 10.324318 
L 33.027382 10.441895 
L 33.392618 9.075927 
L 33.757855 9.228086 
L 33.940473 9.252293 
L 34.123091 12.157135 
L 34.488327 12.769227 
L 35.036182 10.082248 
L 35.2188 8.705906 
L 35.401418 9.674187 
L 35.584036 9.352579 
L 35.766655 8.481126 
L 35.949273 9.871301 
L 36.131891 9.477072 
L 36.314509 9.55661 
L 36.497127 7.412559 
L 36.679745 8.384298 
L 36.862364 11.503546 
L 37.044982 10.102997 
L 37.2276 11.877025 
L 37.410218 14.85103 
L 37.592836 13.28449 
L 37.775455 13.180746 
L 37.958073 14.308102 
L 38.140691 12.105263 
L 38.323309 11.953104 
L 38.688545 13.319072 
L 39.053782 12.288545 
L 39.2364 10.801542 
L 39.419018 10.234406 
L 39.966873 13.343279 
L 40.149491 13.108125 
L 40.332109 11.800946 
L 40.514727 12.015351 
L 40.697345 10.6563 
L 40.879964 11.130066 
L 41.062582 10.130662 
L 41.2452 10.293195 
L 41.427818 11.289141 
L 41.610436 10.490309 
L 41.793055 10.604428 
L 41.975673 10.179076 
L 42.158291 14.512132 
L 42.340909 16.037174 
L 42.523527 15.608364 
L 42.888764 19.06651 
L 43.071382 18.834814 
L 43.254 21.546 
L 43.436618 21.26589 
L 43.619236 18.928184 
L 43.801855 20.449768 
L 43.984473 20.200781 
L 44.167091 20.550054 
L 44.349709 19.0838 
L 44.532327 19.823844 
L 44.714945 19.571399 
L 44.897564 17.112658 
L 45.080182 16.670015 
L 45.2628 17.517261 
L 45.628036 17.185279 
L 45.810655 15.860809 
L 45.993273 16.656182 
L 46.175891 16.054465 
L 46.358509 16.683847 
L 46.541127 16.836006 
L 46.723745 18.962765 
L 46.906364 18.962765 
L 47.088982 13.958829 
L 47.2716 14.155943 
L 47.454218 14.705788 
L 47.819455 13.298323 
L 48.002073 14.007243 
L 48.367309 12.641275 
L 48.549927 12.312752 
L 48.915164 10.026917 
L 49.097782 9.522028 
L 49.2804 9.643063 
L 49.645636 10.832665 
L 49.828255 10.639009 
L 50.010873 11.012489 
L 50.193491 10.386565 
L 50.376109 10.625177 
L 50.558727 9.553152 
L 50.923964 10.237864 
L 51.106582 9.954296 
L 51.2892 9.286874 
L 51.654436 7.101326 
L 52.202291 8.017735 
L 52.384909 9.110509 
L 52.567527 8.79236 
L 52.750145 7.948572 
L 52.932764 7.651172 
L 53.115382 7.647713 
L 53.298 6.126129 
L 53.480618 6.458111 
L 53.663236 5.607408 
L 53.845855 5.890975 
L 54.028473 4.331352 
L 54.211091 4.504259 
L 54.393709 4.421264 
L 54.576327 6.285204 
L 54.758945 5.368796 
L 54.941564 6.461569 
L 55.124182 6.326702 
L 55.3068 6.987208 
L 55.489418 5.935931 
L 55.672036 7.537053 
L 56.037273 3.906 
L 56.037273 3.906 
" style="fill:none;stroke:#0000ff;stroke-linecap:square;stroke-width:0.35;"/>
   </g>
  </g>
 </g>
 <defs>
  <clipPath id="pa26b02d8b4">
   <rect height="19.404" width="50.22" x="8.1" y="3.024"/>
  </clipPath>
 </defs>
</svg>
