<?xml version="1.0" encoding="utf-8" standalone="no"?>
<!DOCTYPE svg PUBLIC "-//W3C//DTD SVG 1.1//EN"
  "http://www.w3.org/Graphics/SVG/1.1/DTD/svg11.dtd">
<!-- Created with matplotlib (http://matplotlib.org/) -->
<svg height="25.2pt" version="1.1" viewBox="0 0 64.8 25.2" width="64.8pt" xmlns="http://www.w3.org/2000/svg" xmlns:xlink="http://www.w3.org/1999/xlink">
 <defs>
  <style type="text/css">
*{stroke-linecap:butt;stroke-linejoin:round;}
  </style>
 </defs>
 <g id="figure_1">
  <g id="patch_1">
   <path d="M 0 25.2 
L 64.8 25.2 
L 64.8 0 
L 0 0 
z
" style="fill:#ffffff;"/>
  </g>
  <g id="axes_1">
   <g id="line2d_1">
    <path clip-path="url(#p9799f9d3ce)" d="M 10.382727 20.095114 
L 10.565345 20.010577 
L 10.747964 19.110162 
L 10.930582 18.89194 
L 11.1132 18.313289 
L 11.295818 18.481707 
L 11.661055 17.336857 
L 11.843673 17.516415 
L 12.208909 16.717576 
L 12.391527 18.659955 
L 12.574145 18.849999 
L 12.756764 19.748447 
L 12.939382 19.260887 
L 13.122 19.983709 
L 13.487236 19.990917 
L 13.669855 20.432605 
L 14.035091 20.058415 
L 14.400327 20.481755 
L 14.582945 21.507991 
L 14.948182 20.496827 
L 15.1308 20.526317 
L 15.313418 20.215693 
L 15.496036 21.2629 
L 15.678655 21.283215 
L 15.861273 21.546 
L 16.043891 20.364452 
L 16.226509 20.213072 
L 16.591745 20.941136 
L 16.774364 21.077444 
L 17.322218 19.405058 
L 17.504836 19.535467 
L 17.687455 20.11805 
L 17.870073 20.159991 
L 18.052691 19.626557 
L 18.235309 20.245838 
L 18.783164 19.682915 
L 19.1484 20.652794 
L 19.331018 20.99946 
L 19.878873 19.85592 
L 20.061491 20.112807 
L 20.244109 20.608232 
L 20.426727 20.353311 
L 20.609345 19.066911 
L 20.791964 18.738594 
L 20.974582 18.108828 
L 21.1572 18.491537 
L 21.339818 18.195331 
L 21.522436 18.595733 
L 21.887673 16.812598 
L 22.070291 16.936454 
L 22.252909 17.224796 
L 22.435527 16.133683 
L 22.618145 16.226739 
L 23.166 15.941673 
L 23.348618 15.900387 
L 23.531236 16.448238 
L 23.713855 16.202492 
L 23.896473 17.496756 
L 24.261709 17.176958 
L 24.444327 17.227418 
L 24.626945 14.166401 
L 24.992182 14.338751 
L 25.1748 13.758135 
L 25.357418 13.752892 
L 25.540036 13.300719 
L 25.722655 13.731922 
L 26.087891 12.817745 
L 26.453127 13.589716 
L 26.635745 13.741752 
L 26.818364 13.725368 
L 27.000982 14.058928 
L 27.1836 13.299408 
L 27.366218 14.178197 
L 27.548836 14.224725 
L 27.731455 13.168999 
L 27.914073 13.072666 
L 28.096691 12.767941 
L 28.279309 11.876701 
L 28.461927 12.322321 
L 28.644545 14.009779 
L 28.827164 14.026162 
L 29.1924 15.515712 
L 29.375018 15.091718 
L 29.922873 13.001236 
L 30.105491 12.73583 
L 30.470727 12.767941 
L 30.653345 12.208294 
L 31.018582 10.374044 
L 31.383818 11.172883 
L 31.566436 11.259386 
L 31.931673 11.710904 
L 32.114291 12.193877 
L 32.479527 12.388508 
L 32.844764 10.024101 
L 33.027382 9.767214 
L 33.21 8.729837 
L 33.392618 8.421179 
L 33.575236 8.465741 
L 33.757855 8.704935 
L 33.940473 8.514235 
L 34.123091 7.417224 
L 34.305709 7.44999 
L 34.488327 6.780249 
L 34.670945 6.923765 
L 34.853564 6.417855 
L 35.2188 4.290675 
L 35.401418 4.666175 
L 35.766655 3.906 
L 35.949273 3.923038 
L 36.131891 4.702218 
L 36.314509 4.292641 
L 36.497127 4.439433 
L 36.862364 11.772504 
L 37.044982 10.147302 
L 37.410218 15.329601 
L 37.775455 12.025459 
L 37.958073 12.014974 
L 38.505927 9.216742 
L 38.871164 8.132837 
L 39.053782 8.441494 
L 39.419018 6.008933 
L 39.966873 10.8734 
L 40.697345 8.244242 
L 40.879964 7.172133 
L 41.062582 4.941411 
L 41.2452 4.649137 
L 41.427818 6.374604 
L 41.610436 5.632778 
L 41.793055 5.62688 
L 41.975673 6.534503 
L 42.158291 8.88777 
L 42.340909 9.026043 
L 42.523527 9.473629 
L 42.888764 14.015677 
L 43.071382 11.942233 
L 43.254 15.094995 
L 43.436618 15.130382 
L 43.619236 13.345936 
L 43.801855 15.005215 
L 43.984473 14.550421 
L 44.167091 13.781726 
L 44.349709 13.606755 
L 44.532327 14.967862 
L 44.714945 14.416735 
L 44.897564 13.355766 
L 45.080182 14.120529 
L 45.2628 13.298753 
L 45.445418 13.511078 
L 45.628036 12.940291 
L 45.810655 10.56933 
L 45.993273 10.705637 
L 46.175891 9.682022 
L 46.358509 10.647969 
L 46.541127 11.009052 
L 46.723745 14.119873 
L 46.906364 14.041234 
L 47.088982 12.805294 
L 47.454218 14.293534 
L 47.636836 12.984197 
L 47.819455 13.831531 
L 48.002073 13.874782 
L 48.184691 12.269895 
L 48.367309 11.838692 
L 48.549927 11.89636 
L 48.915164 9.035218 
L 49.2804 8.862868 
L 49.463018 10.237081 
L 49.645636 10.070629 
L 49.828255 10.279022 
L 50.010873 11.080483 
L 50.193491 10.214145 
L 50.376109 10.859638 
L 50.558727 10.206936 
L 50.741345 10.236426 
L 50.923964 10.471032 
L 51.106582 11.476298 
L 51.2892 10.986116 
L 51.471818 9.859615 
L 51.837055 6.301208 
L 52.019673 6.276961 
L 52.202291 6.459141 
L 52.384909 7.312372 
L 52.567527 7.508314 
L 52.932764 6.299242 
L 53.115382 6.596103 
L 53.298 5.460428 
L 53.480618 5.451253 
L 53.663236 4.061967 
L 53.845855 4.415842 
L 54.028473 4.299194 
L 54.211091 5.097378 
L 54.393709 5.240239 
L 54.576327 7.250116 
L 54.758945 7.666247 
L 54.941564 8.615155 
L 55.124182 7.944104 
L 55.3068 7.850393 
L 55.489418 7.076455 
L 55.672036 8.686585 
L 56.037273 6.243539 
L 56.037273 6.243539 
" style="fill:none;stroke:#0000ff;stroke-linecap:square;stroke-width:0.35;"/>
   </g>
  </g>
 </g>
 <defs>
  <clipPath id="p9799f9d3ce">
   <rect height="19.404" width="50.22" x="8.1" y="3.024"/>
  </clipPath>
 </defs>
</svg>
