<?xml version="1.0" encoding="utf-8" standalone="no"?>
<!DOCTYPE svg PUBLIC "-//W3C//DTD SVG 1.1//EN"
  "http://www.w3.org/Graphics/SVG/1.1/DTD/svg11.dtd">
<!-- Created with matplotlib (http://matplotlib.org/) -->
<svg height="25.2pt" version="1.1" viewBox="0 0 64.8 25.2" width="64.8pt" xmlns="http://www.w3.org/2000/svg" xmlns:xlink="http://www.w3.org/1999/xlink">
 <defs>
  <style type="text/css">
*{stroke-linecap:butt;stroke-linejoin:round;}
  </style>
 </defs>
 <g id="figure_1">
  <g id="patch_1">
   <path d="M 0 25.2 
L 64.8 25.2 
L 64.8 0 
L 0 0 
z
" style="fill:#ffffff;"/>
  </g>
  <g id="axes_1">
   <g id="line2d_1">
    <path clip-path="url(#p0e7ecfd733)" d="M 10.382727 19.553075 
L 10.565345 19.38573 
L 10.747964 18.451112 
L 10.930582 18.372401 
L 11.1132 17.839278 
L 11.295818 17.902115 
L 11.661055 16.790231 
L 11.843673 16.828595 
L 12.026291 16.719457 
L 12.208909 16.423792 
L 12.391527 18.360495 
L 12.574145 18.606551 
L 12.756764 19.453197 
L 12.939382 19.068238 
L 13.122 19.916868 
L 13.487236 19.775319 
L 13.669855 20.260818 
L 13.852473 19.897686 
L 14.217709 20.003517 
L 14.400327 20.27537 
L 14.582945 21.366088 
L 14.948182 20.351436 
L 15.1308 20.407658 
L 15.313418 19.998225 
L 15.496036 21.096881 
L 15.678655 21.194774 
L 15.861273 21.546 
L 16.043891 20.254204 
L 16.226509 20.110009 
L 16.774364 21.065793 
L 17.322218 19.272623 
L 17.504836 19.487592 
L 17.687455 20.182768 
L 17.870073 20.14705 
L 18.052691 19.626495 
L 18.235309 20.187398 
L 18.600545 19.840802 
L 18.783164 19.590116 
L 19.1484 20.5922 
L 19.331018 20.958639 
L 19.878873 19.781272 
L 20.061491 20.065031 
L 20.244109 20.659006 
L 20.426727 20.450652 
L 20.609345 18.964391 
L 20.791964 18.639623 
L 20.974582 18.050278 
L 21.1572 18.46368 
L 21.339818 18.158755 
L 21.522436 18.509319 
L 21.887673 16.732686 
L 22.070291 16.820657 
L 22.252909 17.118968 
L 22.435527 15.938294 
L 22.618145 15.938294 
L 23.348618 15.469331 
L 23.531236 16.190303 
L 23.713855 15.976657 
L 23.896473 17.268454 
L 24.261709 16.87688 
L 24.444327 16.879526 
L 24.626945 14.084933 
L 24.992182 14.126604 
L 25.1748 13.494265 
L 25.357418 13.469792 
L 25.540036 13.005459 
L 25.722655 13.488973 
L 26.087891 12.456462 
L 26.270509 13.155607 
L 26.635745 13.586867 
L 26.818364 13.557763 
L 27.000982 13.903698 
L 27.1836 13.105999 
L 27.366218 13.938093 
L 27.548836 14.01945 
L 27.731455 12.984955 
L 27.914073 12.877801 
L 28.096691 12.573538 
L 28.279309 11.548964 
L 28.461927 12.125741 
L 28.644545 13.839538 
L 28.827164 13.919572 
L 29.1924 15.526877 
L 29.375018 15.015582 
L 29.740255 13.363961 
L 30.105491 12.874494 
L 30.288109 13.086155 
L 30.470727 12.912857 
L 30.653345 12.510701 
L 31.018582 10.683797 
L 31.566436 11.625691 
L 31.931673 11.956412 
L 32.296909 12.61124 
L 32.479527 12.779908 
L 32.844764 10.25849 
L 33.027382 9.978039 
L 33.21 9.016963 
L 33.392618 8.757678 
L 33.757855 9.026885 
L 33.940473 8.900549 
L 34.123091 7.670267 
L 34.305709 7.66696 
L 34.488327 7.111349 
L 34.670945 7.31838 
L 34.853564 6.820314 
L 35.2188 4.659383 
L 35.401418 4.982166 
L 35.766655 3.906 
L 35.949273 3.977436 
L 36.131891 4.58001 
L 36.314509 4.25921 
L 36.497127 4.300881 
L 36.862364 12.185271 
L 37.044982 10.727453 
L 37.2276 12.646958 
L 37.410218 15.802037 
L 37.592836 13.251516 
L 37.775455 12.70318 
L 37.958073 12.730961 
L 38.323309 10.269073 
L 38.505927 9.995236 
L 38.871164 8.788104 
L 39.053782 9.04276 
L 39.419018 6.807085 
L 39.966873 11.58865 
L 40.332109 10.044183 
L 40.514727 9.638057 
L 40.879964 7.75427 
L 41.062582 5.673373 
L 41.2452 5.336699 
L 41.427818 7.057772 
L 41.610436 6.463797 
L 41.793055 6.350029 
L 41.975673 7.420903 
L 42.158291 9.692957 
L 42.523527 10.094453 
L 42.888764 14.55588 
L 43.071382 12.734268 
L 43.254 15.852968 
L 43.436618 15.969381 
L 43.619236 13.855412 
L 43.801855 15.476607 
L 43.984473 15.076435 
L 44.167091 14.346864 
L 44.349709 14.153061 
L 44.532327 15.653874 
L 44.897564 13.897745 
L 45.080182 14.654435 
L 45.2628 13.845491 
L 45.445418 13.928171 
L 45.628036 13.26276 
L 45.810655 11.062804 
L 45.993273 11.325396 
L 46.175891 10.395409 
L 46.358509 11.197738 
L 46.541127 11.429904 
L 46.723745 14.814504 
L 46.906364 14.791353 
L 47.088982 13.447303 
L 47.454218 15.083049 
L 47.636836 13.616632 
L 47.819455 14.588952 
L 48.002073 14.572416 
L 48.184691 12.938654 
L 48.367309 12.379074 
L 48.549927 12.436619 
L 48.915164 9.335778 
L 49.097782 9.47402 
L 49.2804 9.261035 
L 49.463018 10.698349 
L 49.645636 10.749942 
L 49.828255 10.93713 
L 50.010873 11.705726 
L 50.193491 10.755233 
L 50.376109 11.330688 
L 50.558727 10.626252 
L 50.923964 10.750603 
L 51.106582 11.809572 
L 51.2892 11.187816 
L 51.837055 6.189298 
L 52.202291 6.592116 
L 52.384909 7.420903 
L 52.567527 7.53401 
L 52.932764 6.510098 
L 53.115382 6.772029 
L 53.298 5.721659 
L 53.480618 5.77722 
L 53.663236 4.169254 
L 53.845855 4.492699 
L 54.028473 4.136843 
L 54.211091 5.104533 
L 54.393709 5.114455 
L 54.576327 7.099443 
L 54.758945 7.539963 
L 54.941564 8.577104 
L 55.124182 7.926245 
L 55.3068 7.766838 
L 55.489418 6.912254 
L 55.672036 8.620759 
L 56.037273 6.054364 
L 56.037273 6.054364 
" style="fill:none;stroke:#0000ff;stroke-linecap:square;stroke-width:0.35;"/>
   </g>
  </g>
 </g>
 <defs>
  <clipPath id="p0e7ecfd733">
   <rect height="19.404" width="50.22" x="8.1" y="3.024"/>
  </clipPath>
 </defs>
</svg>
