<?xml version="1.0" encoding="utf-8" standalone="no"?>
<!DOCTYPE svg PUBLIC "-//W3C//DTD SVG 1.1//EN"
  "http://www.w3.org/Graphics/SVG/1.1/DTD/svg11.dtd">
<!-- Created with matplotlib (http://matplotlib.org/) -->
<svg height="25.2pt" version="1.1" viewBox="0 0 64.8 25.2" width="64.8pt" xmlns="http://www.w3.org/2000/svg" xmlns:xlink="http://www.w3.org/1999/xlink">
 <defs>
  <style type="text/css">
*{stroke-linecap:butt;stroke-linejoin:round;}
  </style>
 </defs>
 <g id="figure_1">
  <g id="patch_1">
   <path d="M 0 25.2 
L 64.8 25.2 
L 64.8 0 
L 0 0 
z
" style="fill:#ffffff;"/>
  </g>
  <g id="axes_1">
   <g id="line2d_1">
    <path clip-path="url(#p60d3b00d5e)" d="M 10.382727 10.110769 
L 10.565345 9.986281 
L 10.747964 9.101317 
L 10.930582 9.322488 
L 11.1132 8.797014 
L 11.295818 9.391648 
L 11.843673 9.806607 
L 12.026291 9.875767 
L 12.208909 9.820439 
L 12.391527 9.087485 
L 12.574145 9.931095 
L 12.756764 7.77373 
L 12.939382 15.379622 
L 13.122 15.407286 
L 13.487236 13.402073 
L 13.669855 13.056415 
L 13.852473 13.388241 
L 14.035091 13.125575 
L 14.582945 16.334451 
L 14.948182 16.126125 
L 15.1308 16.223372 
L 15.313418 15.737136 
L 15.678655 16.848493 
L 15.861273 16.223372 
L 16.043891 14.417453 
L 16.409127 15.125847 
L 16.591745 14.542505 
L 16.774364 14.486895 
L 16.956982 14.903689 
L 17.322218 13.847942 
L 17.504836 13.750695 
L 17.687455 13.472785 
L 18.052691 15.778773 
L 18.235309 15.750968 
L 18.417927 15.014768 
L 18.600545 15.681526 
L 18.783164 14.639752 
L 19.1484 14.111879 
L 19.331018 14.084074 
L 19.513636 14.181321 
L 19.696255 13.44498 
L 19.878873 13.639475 
L 20.061491 13.528396 
L 20.244109 13.72289 
L 20.426727 13.472785 
L 20.609345 13.66728 
L 20.974582 15.445394 
L 21.1572 15.30651 
L 21.339818 15.056405 
L 21.522436 15.13982 
L 21.887673 13.417316 
L 22.070291 13.625643 
L 22.618145 12.30596 
L 22.800764 12.65317 
L 23.166 14.334037 
L 23.348618 13.361706 
L 23.531236 13.09777 
L 23.713855 14.250763 
L 23.896473 14.667557 
L 24.079091 14.653584 
L 24.261709 14.820274 
L 24.444327 13.7785 
L 24.626945 13.820137 
L 24.809564 13.417316 
L 24.992182 13.875747 
L 25.1748 13.472785 
L 25.357418 13.833969 
L 25.722655 11.472513 
L 26.087891 9.610983 
L 26.453127 10.819587 
L 26.635745 11.375265 
L 26.818364 10.972303 
L 27.000982 10.874633 
L 27.1836 10.120508 
L 27.548836 10.720928 
L 27.731455 10.092562 
L 27.914073 10.260098 
L 28.096691 10.734902 
L 28.279309 11.977803 
L 28.827164 9.310491 
L 29.009782 10.008723 
L 29.375018 7.187847 
L 29.740255 7.467027 
L 29.922873 8.207179 
L 30.288109 7.285518 
L 30.653345 6.685097 
L 30.835964 8.654178 
L 31.018582 9.017196 
L 31.2012 9.045143 
L 31.749055 10.036669 
L 31.931673 10.260098 
L 32.114291 10.078589 
L 32.296909 9.324464 
L 32.479527 9.85516 
L 32.662145 9.575839 
L 32.844764 8.067589 
L 33.027382 7.760322 
L 33.21 6.810714 
L 33.575236 7.411276 
L 33.757855 6.51742 
L 33.940473 6.266045 
L 34.305709 5.484115 
L 34.488327 5.344384 
L 34.853564 4.506562 
L 35.036182 4.296965 
L 35.2188 3.906 
L 35.401418 5.106982 
L 35.584036 5.497947 
L 35.766655 9.073089 
L 35.949273 10.427634 
L 36.131891 10.190232 
L 36.314509 10.720928 
L 36.497127 11.852186 
L 36.679745 12.173286 
L 36.862364 13.681535 
L 37.044982 12.396714 
L 37.410218 14.559019 
L 37.775455 12.298479 
L 38.140691 11.442026 
L 38.323309 10.613519 
L 38.505927 10.753956 
L 38.688545 11.470113 
L 38.871164 11.287475 
L 39.053782 12.270392 
L 39.419018 9.785153 
L 39.601636 10.627633 
L 39.784255 9.883388 
L 39.966873 11.18924 
L 40.149491 10.12206 
L 40.697345 9.981765 
L 40.879964 9.363984 
L 41.2452 6.654046 
L 41.610436 7.454325 
L 41.793055 6.696107 
L 41.975673 7.215652 
L 42.158291 8.198569 
L 42.340909 7.692997 
L 42.523527 7.959897 
L 42.706145 8.942673 
L 42.888764 10.992628 
L 43.071382 8.900613 
L 43.254 9.377957 
L 43.436618 8.760176 
L 43.619236 8.774149 
L 43.801855 11.091004 
L 44.167091 7.454325 
L 44.349709 7.019041 
L 44.532327 8.142395 
L 44.714945 7.636963 
L 44.897564 6.640073 
L 45.2628 6.611986 
L 45.445418 6.878745 
L 45.628036 6.611986 
L 45.810655 6.050238 
L 46.175891 6.906832 
L 46.358509 8.619739 
L 46.541127 8.39504 
L 46.723745 8.886498 
L 46.906364 9.026935 
L 47.088982 6.682133 
L 47.454218 9.223547 
L 47.636836 8.437241 
L 48.002073 11.245414 
L 48.184691 9.069137 
L 48.367309 9.392071 
L 48.549927 9.08311 
L 48.732545 9.54888 
L 48.915164 8.687911 
L 49.463018 10.113451 
L 49.645636 9.393624 
L 49.828255 9.323052 
L 50.010873 9.379509 
L 50.193491 9.125453 
L 50.376109 9.661795 
L 50.558727 8.913739 
L 50.923964 8.306826 
L 51.106582 9.28071 
L 51.2892 8.927853 
L 51.471818 10.071108 
L 51.837055 9.506538 
L 52.019673 11.46842 
L 52.202291 9.365395 
L 52.384909 9.407738 
L 52.567527 10.169908 
L 52.750145 10.339279 
L 52.932764 10.339279 
L 53.115382 10.720364 
L 53.298 9.577109 
L 53.663236 9.294824 
L 53.845855 8.998424 
L 54.028473 16.351953 
L 54.211091 18.610234 
L 54.393709 17.73515 
L 54.941564 19.711146 
L 55.124182 21.546 
L 55.489418 20.812059 
L 55.854655 21.4472 
L 56.037273 20.924973 
L 56.037273 20.924973 
" style="fill:none;stroke:#0000ff;stroke-linecap:square;stroke-width:0.35;"/>
   </g>
  </g>
 </g>
 <defs>
  <clipPath id="p60d3b00d5e">
   <rect height="19.404" width="50.22" x="8.1" y="3.024"/>
  </clipPath>
 </defs>
</svg>
